<svg width="500" height="500" viewBox="0 0 500 500" fill="none" xmlns="http://www.w3.org/2000/svg">
<path d="M100 338C100 260.68 162.68 198 240 198H260C337.32 198 400 260.68 400 338V338C400 415.32 337.32 478 260 478H240C162.68 478 100 415.32 100 338V338Z" fill="#0A365F"/>
<path d="M100 325C100 247.68 162.68 185 240 185H260C337.32 185 400 247.68 400 325V325C400 402.32 337.32 465 260 465H240C162.68 465 100 402.32 100 325V325Z" fill="url(#paint0_linear)"/>
<path d="M150 122C150 66.7715 194.772 22 250 22V22C305.228 22 350 66.7715 350 122V122C350 177.228 305.228 222 250 222V222C194.772 222 150 177.228 150 122V122Z" fill="url(#paint1_linear)"/>
<defs>
<linearGradient id="paint0_linear" x1="363" y1="293" x2="134" y2="267.5" gradientUnits="userSpaceOnUse">
<stop stop-color="#094C89"/>
<stop offset="0.971305" stop-color="#2381D8"/>
</linearGradient>
<linearGradient id="paint1_linear" x1="344.5" y1="122" x2="146" y2="61" gradientUnits="userSpaceOnUse">
<stop stop-color="#0A559B"/>
<stop offset="1" stop-color="#3C9CF3"/>
</linearGradient>
</defs>
</svg>
